<mxfile host="app.diagrams.net" modified="2022-10-11T17:42:35.270Z" agent="5.0 (Macintosh; Intel Mac OS X 10_15_7) AppleWebKit/537.36 (KHTML, like Gecko) Chrome/106.0.0.0 Safari/537.36" etag="uvK9ZbojBANV-cQFzLNK" version="20.3.7" type="github">
  <diagram id="ppVLD-jVIGw85QRkmUpA" name="Page-1">
    <mxGraphModel dx="946" dy="536" grid="1" gridSize="10" guides="1" tooltips="1" connect="1" arrows="1" fold="1" page="1" pageScale="1" pageWidth="850" pageHeight="1100" math="0" shadow="0">
      <root>
        <mxCell id="0" />
        <mxCell id="1" parent="0" />
        <mxCell id="RZMMZP7Spw5_g9be2YOi-1" value="Database" style="shape=cylinder3;whiteSpace=wrap;html=1;boundedLbl=1;backgroundOutline=1;size=15;fillColor=#dae8fc;strokeColor=#6c8ebf;" vertex="1" parent="1">
          <mxGeometry x="370" y="300" width="60" height="80" as="geometry" />
        </mxCell>
        <mxCell id="RZMMZP7Spw5_g9be2YOi-7" style="edgeStyle=orthogonalEdgeStyle;rounded=0;orthogonalLoop=1;jettySize=auto;html=1;" edge="1" parent="1" source="RZMMZP7Spw5_g9be2YOi-2" target="RZMMZP7Spw5_g9be2YOi-1">
          <mxGeometry relative="1" as="geometry" />
        </mxCell>
        <mxCell id="RZMMZP7Spw5_g9be2YOi-11" style="edgeStyle=orthogonalEdgeStyle;rounded=0;orthogonalLoop=1;jettySize=auto;html=1;entryX=0;entryY=0.5;entryDx=0;entryDy=0;" edge="1" parent="1" source="RZMMZP7Spw5_g9be2YOi-2" target="RZMMZP7Spw5_g9be2YOi-8">
          <mxGeometry relative="1" as="geometry" />
        </mxCell>
        <mxCell id="RZMMZP7Spw5_g9be2YOi-2" value="Backend" style="rounded=1;whiteSpace=wrap;html=1;fillColor=#dae8fc;strokeColor=#6c8ebf;" vertex="1" parent="1">
          <mxGeometry x="340" y="160" width="120" height="60" as="geometry" />
        </mxCell>
        <mxCell id="RZMMZP7Spw5_g9be2YOi-3" value="" style="rounded=0;whiteSpace=wrap;html=1;" vertex="1" parent="1">
          <mxGeometry x="40" y="80" width="160" height="240" as="geometry" />
        </mxCell>
        <mxCell id="RZMMZP7Spw5_g9be2YOi-4" value="Zalo" style="text;html=1;strokeColor=none;fillColor=none;align=center;verticalAlign=middle;whiteSpace=wrap;rounded=0;" vertex="1" parent="1">
          <mxGeometry x="50" y="90" width="60" height="30" as="geometry" />
        </mxCell>
        <mxCell id="RZMMZP7Spw5_g9be2YOi-6" style="edgeStyle=orthogonalEdgeStyle;rounded=0;orthogonalLoop=1;jettySize=auto;html=1;entryX=0;entryY=0.5;entryDx=0;entryDy=0;" edge="1" parent="1" source="RZMMZP7Spw5_g9be2YOi-5" target="RZMMZP7Spw5_g9be2YOi-2">
          <mxGeometry relative="1" as="geometry" />
        </mxCell>
        <mxCell id="RZMMZP7Spw5_g9be2YOi-5" value="Zalo mini app" style="rounded=1;whiteSpace=wrap;html=1;fillColor=#dae8fc;strokeColor=#6c8ebf;" vertex="1" parent="1">
          <mxGeometry x="60" y="160" width="120" height="60" as="geometry" />
        </mxCell>
        <mxCell id="RZMMZP7Spw5_g9be2YOi-8" value="Facebook" style="rounded=1;whiteSpace=wrap;html=1;fillColor=#dae8fc;strokeColor=#6c8ebf;" vertex="1" parent="1">
          <mxGeometry x="640" y="160" width="120" height="60" as="geometry" />
        </mxCell>
        <mxCell id="RZMMZP7Spw5_g9be2YOi-10" style="edgeStyle=orthogonalEdgeStyle;rounded=0;orthogonalLoop=1;jettySize=auto;html=1;entryX=0.5;entryY=0;entryDx=0;entryDy=0;" edge="1" parent="1" source="RZMMZP7Spw5_g9be2YOi-9" target="RZMMZP7Spw5_g9be2YOi-2">
          <mxGeometry relative="1" as="geometry" />
        </mxCell>
        <mxCell id="RZMMZP7Spw5_g9be2YOi-9" value="Ứng dụng quản trị" style="rounded=1;whiteSpace=wrap;html=1;fillColor=#dae8fc;strokeColor=#6c8ebf;" vertex="1" parent="1">
          <mxGeometry x="340" y="20" width="120" height="60" as="geometry" />
        </mxCell>
      </root>
    </mxGraphModel>
  </diagram>
</mxfile>
